<?xml version="1.0" encoding="utf-8"?>
<!-- Generator: Adobe Illustrator 18.1.1, SVG Export Plug-In . SVG Version: 6.00 Build 0)  -->
<svg version="1.1" id="Layer_1" xmlns="http://www.w3.org/2000/svg" xmlns:xlink="http://www.w3.org/1999/xlink" x="0px" y="0px"
	 viewBox="0 0 32 32" enable-background="new 0 0 32 32" xml:space="preserve">
<g>
	<g>
		<g>
			<path fill="#4D4D4D" d="M16,1.9c7.8,0,14.1,6.3,14.1,14.1S23.8,30.1,16,30.1S1.9,23.8,1.9,16S8.2,1.9,16,1.9 M16,0
				C7.2,0,0,7.2,0,16s7.2,16,16,16s16-7.2,16-16S24.8,0,16,0L16,0z"/>
		</g>
		<g>
			<g>
				<path fill="#4D4D4D" d="M9.8,14.9H15v-4.7h1.8v12.1H15v-5.6H9.8v5.6H7.9V10.1h1.8V14.9z"/>
			</g>
			<g>
				<path fill="#4D4D4D" d="M21.2,11.8h-2.1l1-1.7H23v12.1h-1.8V11.8z"/>
			</g>
		</g>
	</g>
</g>
</svg>
