<?xml version="1.0" encoding="utf-8"?>
<!-- Generator: Adobe Illustrator 18.1.1, SVG Export Plug-In . SVG Version: 6.00 Build 0)  -->
<svg version="1.1" id="Layer_1" xmlns="http://www.w3.org/2000/svg" xmlns:xlink="http://www.w3.org/1999/xlink" x="0px" y="0px"
	 viewBox="0 0 24 24" enable-background="new 0 0 24 24" xml:space="preserve">
<path fill="#212121" d="M18.7,13c0-0.3,0.1-0.5,0.1-0.9c0-0.4,0-0.6-0.1-0.9l1.9-1.4c0.2-0.2,0.3-0.4,0.1-0.6l-1.8-3.1
	c-0.1-0.2-0.4-0.3-0.5-0.2l-2.3,0.9c-0.5-0.4-1-0.6-1.5-0.9l-0.4-2.4c0-0.2-0.2-0.4-0.5-0.4h-3.6c-0.2,0-0.4,0.2-0.4,0.4L9.4,5.9
	C8.8,6.1,8.3,6.4,7.8,6.8L5.5,5.9C5.4,5.8,5.1,5.9,5,6.1L3.2,9.2C3.1,9.3,3.1,9.6,3.3,9.7l1.9,1.5c0,0.3-0.1,0.5-0.1,0.9
	c0,0.4,0,0.6,0.1,0.9l-1.9,1.4c-0.2,0.1-0.2,0.4-0.1,0.5L5,18.1c0.1,0.1,0.4,0.2,0.5,0.1l2.3-0.9c0.5,0.4,1,0.6,1.5,0.9l0.4,2.3
	c0,0.3,0.2,0.4,0.5,0.4h3.6c0.2,0,0.5-0.2,0.5-0.4l0.4-2.3c0.5-0.2,1.1-0.5,1.5-0.9l2.3,0.9c0.2,0.1,0.5,0,0.5-0.2l1.8-3.1
	c0.1-0.2,0.1-0.4-0.1-0.5L18.7,13z M12,15.2c-1.7,0-3.2-1.4-3.2-3.1s1.5-3.2,3.2-3.2s3.2,1.4,3.2,3.1S13.7,15.2,12,15.2z"/>
</svg>
