<?xml version="1.0" encoding="utf-8"?>
<!-- Generator: Adobe Illustrator 18.1.1, SVG Export Plug-In . SVG Version: 6.00 Build 0)  -->
<svg version="1.1" id="Layer_1" xmlns="http://www.w3.org/2000/svg" xmlns:xlink="http://www.w3.org/1999/xlink" x="0px" y="0px"
	 viewBox="0 0 24 24" enable-background="new 0 0 24 24" xml:space="preserve">
<g>
	<path d="M9.7,8.1L7.2,5.5L5.5,7.2l2.6,2.5C8.5,9,9,8.5,9.7,8.1z"/>
	<path d="M15.9,9.7l2.5-2.5l-1.6-1.6l-2.5,2.5C15,8.5,15.5,9,15.9,9.7z"/>
	<path d="M12,7.4c0.3,0,0.8,0.1,1.1,0.1V4h-2.3v3.5C11.2,7.5,11.7,7.4,12,7.4z"/>
	<path d="M7.4,12c0-0.3,0.1-0.8,0.1-1.1H4v2.3h3.5C7.5,12.8,7.4,12.3,7.4,12z"/>
	<path d="M8.1,14.3l-2.5,2.5l1.6,1.6l2.5-2.5C9,15.5,8.5,15,8.1,14.3z"/>
	<path d="M16.5,10.9c0,0.3,0.1,0.8,0.1,1.1s-0.1,0.8-0.1,1.1H20v-2.3H16.5z"/>
	<path d="M14.3,15.9l2.5,2.5l1.6-1.6l-2.5-2.5C15.5,15,15,15.5,14.3,15.9z"/>
	<path d="M12,16.6c-0.3,0-0.8-0.1-1.1-0.1V20h2.3v-3.5C12.8,16.5,12.3,16.6,12,16.6z"/>
</g>
</svg>
