<?xml version="1.0" encoding="utf-8"?>
<!-- Generator: Adobe Illustrator 18.1.1, SVG Export Plug-In . SVG Version: 6.00 Build 0)  -->
<svg version="1.1" xmlns="http://www.w3.org/2000/svg" xmlns:xlink="http://www.w3.org/1999/xlink" x="0px" y="0px"
	 viewBox="0 0 32 32" enable-background="new 0 0 32 32" xml:space="preserve">
<g id="Layer_1">
</g>
<g id="Isolation_Mode">
	<path fill="#FFFFFF" d="M16.8,21.9c0.1,0,0.2,0,0.2,0.1c0.6,0.5,1.4,0.7,2.1,0.8c0.1,0,0.2,0.1,0.2,0.1c1.3,1.3,2.7,2.4,3.1,2.8
		L22.4,23c0-0.2,0.1-0.3,0.2-0.4c0.5-0.2,0.9-0.6,1.2-1.1c0-0.1,0.1-0.1,0.2-0.2c1.1-0.6,1.8-1.7,1.8-2.9c0-0.3,0-0.5-0.1-0.8
		c0-0.1,0-0.3,0.1-0.4c0.5-0.6,0.8-1.4,0.8-2.2c0-1.1-0.6-2.2-1.6-2.8c-0.1-0.1-0.2-0.1-0.2-0.3c-0.5-2.2-2.7-3.8-5.1-3.8
		c-0.6,0-1.2,0.1-1.7,0.3c-0.1,0-0.3,0-0.4-0.1c-0.7-0.6-1.6-1-2.5-1c-1.1,0-2.2,0.5-2.8,1.3C12.2,8.9,12,9,11.9,8.9
		c-0.2,0-0.3,0-0.5,0c-1.6,0-3,1-3.4,2.4c0,0.1-0.1,0.2-0.3,0.3c-1.4,0.5-2.4,1.7-2.4,3.2c0,0.4,0.1,0.9,0.3,1.2c0,0.1,0,0.2,0,0.3
		c-0.2,0.4-0.3,0.8-0.3,1.2c0,1.2,0.2,2.3,2,2.9c0.1,0,0.1,0.1,0.1,0.1c0.8,1,1.3,1.1,2.3,1.1c0.6,0,1.3-0.3,1.8-0.6
		c0.2-0.1,0.4,0,0.5,0.1c0.7,0.7,1.7,1.2,2.7,1.2c0.7,0,1.3-0.2,1.8-0.5C16.6,21.9,16.7,21.9,16.8,21.9z"/>
</g>
<g id="Layer_3">
</g>
</svg>
