<?xml version="1.0" encoding="utf-8"?>
<!-- Generator: Adobe Illustrator 18.0.0, SVG Export Plug-In . SVG Version: 6.00 Build 0)  -->
<!DOCTYPE svg PUBLIC "-//W3C//DTD SVG 1.1//EN" "http://www.w3.org/Graphics/SVG/1.1/DTD/svg11.dtd">
<svg version="1.1" id="Layer_1" xmlns="http://www.w3.org/2000/svg" xmlns:xlink="http://www.w3.org/1999/xlink" x="0px" y="0px"
	 viewBox="0 0 24 24" enable-background="new 0 0 24 24" xml:space="preserve">
<g>
	<g>
		<polygon fill="#FFFFFF" points="20,5 20,22 4,22 4,2 17,2 		"/>
		<path d="M17,2l3,3v17H4V2H17 M17.4,1H17H4H3v1v20v1h1h16h1v-1V5V4.6l-0.3-0.3l-3-3L17.4,1L17.4,1z"/>
	</g>
	<path fill="none" stroke="#000000" stroke-linecap="square" stroke-linejoin="round" stroke-miterlimit="10" d="M17.3,16"/>
	<path fill="none" stroke="#000000" stroke-linecap="square" stroke-linejoin="round" stroke-miterlimit="10" d="M14.9,19"/>
	<path fill="none" stroke="#000000" stroke-linecap="square" stroke-linejoin="round" stroke-miterlimit="10" d="M14.9,5.7"/>
	<g>
		<path fill="none" stroke="#000000" stroke-linecap="square" stroke-linejoin="round" stroke-miterlimit="10" d="M7.5,17.2"/>
		<path fill="none" stroke="#000000" stroke-linecap="round" stroke-miterlimit="10" d="M11.2,10.2l2.6-2.6c0.8-0.8,2-0.8,2.8,0
			l0.2,0.2c0.8,0.8,0.8,2,0,2.8l-2.6,2.6"/>
		<path fill="none" stroke="#000000" stroke-linecap="round" stroke-miterlimit="10" d="M12.2,15.2l-2.6,2.6c-0.8,0.8-2,0.8-2.8,0
			l-0.2-0.2c-0.8-0.8-0.8-2,0-2.8l2.6-2.6"/>
		<line fill="none" stroke="#000000" stroke-linecap="round" stroke-miterlimit="10" x1="14.2" y1="10.2" x2="9.2" y2="15.2"/>
	</g>
</g>
</svg>
