<?xml version="1.0" encoding="utf-8"?>
<!-- Generator: Adobe Illustrator 18.1.1, SVG Export Plug-In . SVG Version: 6.00 Build 0)  -->
<svg version="1.1" id="Layer_1" xmlns="http://www.w3.org/2000/svg" xmlns:xlink="http://www.w3.org/1999/xlink" x="0px" y="0px"
	 viewBox="0 0 24 24" enable-background="new 0 0 24 24" xml:space="preserve">
<g>
	<polygon fill="#FFFFFF" points="20,5 20,22 4,22 4,2 17,2 	"/>
	<path d="M17,2l3,3v17H4V2H17 M17.4,1H17H4H3v1v20v1h1h16h1v-1V5V4.6l-0.3-0.3l-3-3L17.4,1L17.4,1z"/>
</g>
<path fill="none" stroke="#000000" stroke-miterlimit="10" d="M16.8,12"/>
<g>
	<path fill="none" stroke="#000000" stroke-miterlimit="10" d="M16.7,11.2c0.4,2.6-1.3,5-3.9,5.4s-5-1.3-5.4-3.9
		c-0.4-2.6,1.3-5,3.9-5.4c1.4-0.2,2.8,0.2,3.8,1.1"/>
	<polygon points="14.9,13 16.6,10 18.4,13 	"/>
</g>
</svg>
