<?xml version="1.0" encoding="utf-8"?>
<!-- Generator: Adobe Illustrator 18.0.0, SVG Export Plug-In . SVG Version: 6.00 Build 0)  -->
<!DOCTYPE svg PUBLIC "-//W3C//DTD SVG 1.1//EN" "http://www.w3.org/Graphics/SVG/1.1/DTD/svg11.dtd">
<svg version="1.1" id="Layer_1" xmlns="http://www.w3.org/2000/svg" xmlns:xlink="http://www.w3.org/1999/xlink" x="0px" y="0px"
	 viewBox="0 0 40 40" enable-background="new 0 0 40 40" xml:space="preserve">
<circle cx="20" cy="20" r="20"/>
<g>
	<g>
		<polygon fill="#FFFFFF" points="28,13 28,30 12,30 12,10 25,10 		"/>
		<path d="M25,10l3,3v17H12V10H25 M25.4,9H25H12h-1v1v20v1h1h16h1v-1V13v-0.4l-0.3-0.3l-3-3L25.4,9L25.4,9z"/>
	</g>
	<line fill="none" stroke="#000000" stroke-miterlimit="10" x1="15" y1="14.5" x2="25" y2="14.5"/>
	<line fill="none" stroke="#000000" stroke-miterlimit="10" x1="15" y1="17.5" x2="25" y2="17.5"/>
	<line fill="none" stroke="#000000" stroke-miterlimit="10" x1="15" y1="20.5" x2="25" y2="20.5"/>
	<line fill="none" stroke="#000000" stroke-miterlimit="10" x1="15" y1="23.5" x2="25" y2="23.5"/>
	<line fill="none" stroke="#000000" stroke-miterlimit="10" x1="15" y1="26.5" x2="25" y2="26.5"/>
	<path fill="none" stroke="#000000" stroke-linecap="square" stroke-linejoin="round" stroke-miterlimit="10" d="M25.3,24"/>
	<path fill="none" stroke="#000000" stroke-linecap="square" stroke-linejoin="round" stroke-miterlimit="10" d="M15.3,24"/>
	<path fill="none" stroke="#000000" stroke-linecap="square" stroke-linejoin="round" stroke-miterlimit="10" d="M22.9,27"/>
	<path fill="none" stroke="#000000" stroke-linecap="square" stroke-linejoin="round" stroke-miterlimit="10" d="M22.9,13.7"/>
</g>
</svg>
