<?xml version="1.0" encoding="utf-8"?>
<!-- Generator: Adobe Illustrator 18.0.0, SVG Export Plug-In . SVG Version: 6.00 Build 0)  -->
<!DOCTYPE svg PUBLIC "-//W3C//DTD SVG 1.1//EN" "http://www.w3.org/Graphics/SVG/1.1/DTD/svg11.dtd">
<svg version="1.1" id="Layer_1" xmlns="http://www.w3.org/2000/svg" xmlns:xlink="http://www.w3.org/1999/xlink" x="0px" y="0px"
	 viewBox="0 0 24 24" enable-background="new 0 0 24 24" xml:space="preserve">
<g>
	<polygon fill="#FFFFFF" points="20,5 20,22 4,22 4,2 17,2 	"/>
	<path d="M17,2l3,3v17H4V2H17 M17.4,1H17H4H3v1v20v1h1h16h1v-1V5V4.6l-0.3-0.3l-3-3L17.4,1L17.4,1z"/>
	<rect x="7" y="6" fill="#FFFFFF" width="9" height="13"/>
	<path d="M16.5,19h-9C7.2,19,7,18.8,7,18.5v-13C7,5.2,7.2,5,7.5,5h9C16.8,5,17,5.2,17,5.5v13C17,18.8,16.8,19,16.5,19z M8,18h8V6H8
		V18z"/>
	<rect x="7" y="9" width="9" height="1"/>
	<rect x="7" y="6" width="9" height="1"/>
	<rect x="7" y="12" width="9" height="1"/>
	<rect x="7" y="15" width="9" height="1"/>
	<path fill="none" stroke="#B3B3B3" stroke-linecap="square" stroke-linejoin="round" stroke-miterlimit="10" d="M17.3,16"/>
	<path fill="none" stroke="#B3B3B3" stroke-linecap="square" stroke-linejoin="round" stroke-miterlimit="10" d="M7.3,16"/>
	<rect x="10" y="6" width="1" height="13"/>
	<rect x="13" y="6" width="1" height="13"/>
	<path fill="none" stroke="#B3B3B3" stroke-linecap="square" stroke-linejoin="round" stroke-miterlimit="10" d="M14.9,20"/>
	<path fill="none" stroke="#B3B3B3" stroke-linecap="square" stroke-linejoin="round" stroke-miterlimit="10" d="M14.9,5.7"/>
</g>
</svg>
