<?xml version="1.0" encoding="utf-8"?>
<!-- Generator: Adobe Illustrator 18.1.1, SVG Export Plug-In . SVG Version: 6.00 Build 0)  -->
<svg version="1.1" xmlns="http://www.w3.org/2000/svg" xmlns:xlink="http://www.w3.org/1999/xlink" x="0px" y="0px"
	 viewBox="0 0 16 16" enable-background="new 0 0 16 16" xml:space="preserve">
<g id="Layer_1">
	<circle cx="8" cy="8" r="8"/>
</g>
<g id="Isolation_Mode">
	<g>
		<path fill="#FFFFFF" d="M8.2,11.4c0,0,0.1,0,0.1,0C8.7,11.7,9.1,12,9.6,12c0.1,0,0.1,0,0.1,0.1c0.7,0.8,1.6,1.7,1.8,1.8l0-2.2
			c0-0.3,0.2,0,0.3-0.2c0.1,0,0.2-0.1,0.2-0.4c0,0,0.1,0.1,0.2,0c0.5-0.1,1.1-1,1-1.6c0-0.1,0-0.3-0.1-0.4c-0.2-0.1,0-0.2,0.1-0.2
			c0.3-0.3,0.5-0.8,0.5-1.2c0-0.6-0.3-1.2-0.9-1.6c-0.1,0-0.1-0.1-0.1-0.1c-0.3-1.3-1.5-2.1-2.9-2.1c-0.3,0-0.7,0.1-1,0.2
			C8.9,4,8.8,4,8.7,3.9C8.3,3.6,7.8,3.4,7.3,3.4c-0.6,0-1.2,0.3-1.6,0.7C5.6,4.2,5.6,4.2,5.5,4.2c-0.1,0-0.2,0-0.3,0
			c-0.9,0-1.7,0.6-1.9,1.4c0,0.1-0.1,0.1-0.2,0.2C2.3,6,1.8,6.7,1.8,7.5c0,0.2,0,0.5,0.1,0.7c0,0.1,0,0.1,0,0.2
			C1.8,8.6,1.8,8.8,1.8,9c0,0.7,0.1,1.4,1.2,1.5c0,0,0.1,0.2,0.1,0.2c0.4,0.5,0.7,0.6,1.2,0.6c0.3,0,0.7-0.2,1-0.3
			c0.1,0,0.2,0,0.3,0.1c0.4,0.4,0.9,0.7,1.5,0.7c0.4,0,0.7-0.2,1-0.3C8.1,11.4,8.2,11.4,8.2,11.4z"/>
	</g>
</g>
<g id="Layer_3">
</g>
</svg>
