<?xml version="1.0" encoding="utf-8"?>
<!-- Generator: Adobe Illustrator 18.0.0, SVG Export Plug-In . SVG Version: 6.00 Build 0)  -->
<!DOCTYPE svg PUBLIC "-//W3C//DTD SVG 1.1//EN" "http://www.w3.org/Graphics/SVG/1.1/DTD/svg11.dtd">
<svg version="1.1" id="Layer_1" xmlns="http://www.w3.org/2000/svg" xmlns:xlink="http://www.w3.org/1999/xlink" x="0px" y="0px"
	 viewBox="0 0 24 24" enable-background="new 0 0 24 24" xml:space="preserve">
<g>
	<g>
		<polygon fill="#FFFFFF" points="20,5 20,22 4,22 4,2 17,2 		"/>
		<path d="M17,2l3,3v17H4V2H17 M17.4,1H17H4H3v1v20v1h1h16h1v-1V5V4.6l-0.3-0.3l-3-3L17.4,1L17.4,1z"/>
	</g>
	<rect x="7" y="7" transform="matrix(0.9701 -0.2425 0.2425 0.9701 -1.9141 2.4515)" width="4" height="4"/>
	<circle cx="12.2" cy="15.2" r="2.2"/>
	<polygon points="12.8,11.7 15.7,7.7 17.8,12.2 	"/>
</g>
</svg>
