<?xml version="1.0" encoding="utf-8"?>
<!-- Generator: Adobe Illustrator 18.1.1, SVG Export Plug-In . SVG Version: 6.00 Build 0)  -->
<svg version="1.1" xmlns="http://www.w3.org/2000/svg" xmlns:xlink="http://www.w3.org/1999/xlink" x="0px" y="0px"
	 viewBox="0 0 24 24" enable-background="new 0 0 24 24" xml:space="preserve">
<g id="Layer_1">
</g>
<g id="Isolation_Mode">
	<path fill="#FFFFFF" d="M12.6,16.4c0.1,0,0.1,0,0.2,0.1c0.5,0.3,1,0.6,1.6,0.6c0.1,0,0.1,0,0.2,0.1c1,1,2,1.8,2.3,2.1l-0.1-2.1
		c0-0.1,0.1-0.2,0.2-0.3c0.4-0.2,0.7-0.5,0.9-0.8c0-0.1,0.1-0.1,0.1-0.1c0.8-0.4,1.4-1.3,1.4-2.2c0-0.2,0-0.4-0.1-0.6
		c0-0.1,0-0.2,0.1-0.3c0.4-0.5,0.6-1,0.6-1.6c0-0.8-0.4-1.6-1.2-2.1c-0.1,0-0.1-0.1-0.1-0.2c-0.4-1.7-2-2.9-3.8-2.9
		c-0.4,0-0.9,0.1-1.3,0.2c-0.1,0-0.2,0-0.3-0.1c-0.5-0.5-1.2-0.7-1.9-0.7c-0.8,0-1.6,0.4-2.1,1C9.1,6.7,9,6.7,8.9,6.7
		c-0.1,0-0.2,0-0.3,0C7.4,6.7,6.3,7.4,6,8.5c0,0.1-0.1,0.2-0.2,0.2C4.7,9.1,4,10,4,11.1c0,0.3,0.1,0.6,0.2,0.9c0,0.1,0,0.2,0,0.2
		C4.1,12.6,4,12.9,4,13.2c0,0.9,0.1,1.7,1.5,2.2c0.1,0,0.1,0.1,0.1,0.1c0.6,0.7,1,0.8,1.7,0.8c0.5,0,0.9-0.2,1.3-0.4
		c0.1-0.1,0.3,0,0.4,0.1c0.5,0.6,1.3,0.9,2,0.9c0.5,0,1-0.1,1.4-0.4C12.5,16.5,12.5,16.4,12.6,16.4z"/>
</g>
<g id="Layer_3">
</g>
</svg>
