<?xml version="1.0" encoding="utf-8"?>
<!-- Generator: Adobe Illustrator 18.0.0, SVG Export Plug-In . SVG Version: 6.00 Build 0)  -->
<!DOCTYPE svg PUBLIC "-//W3C//DTD SVG 1.1//EN" "http://www.w3.org/Graphics/SVG/1.1/DTD/svg11.dtd">
<svg version="1.1" id="Layer_1" xmlns="http://www.w3.org/2000/svg" xmlns:xlink="http://www.w3.org/1999/xlink" x="0px" y="0px"
	 viewBox="0 0 40 40" enable-background="new 0 0 40 40" xml:space="preserve">
<circle cx="20" cy="20" r="20"/>
<polygon fill="#FFFFFF" points="28,13 28,30 12,30 12,10 25,10 "/>
<path d="M25,10l3,3v17H12V10H25 M25.4,9H25H12h-1v1v20v1h1h16h1v-1V13v-0.4l-0.3-0.3l-3-3L25.4,9L25.4,9z"/>
<rect x="15" y="14" fill="#FFFFFF" width="9" height="13"/>
<path d="M24.5,27h-9c-0.3,0-0.5-0.2-0.5-0.5v-13c0-0.3,0.2-0.5,0.5-0.5h9c0.3,0,0.5,0.2,0.5,0.5v13C25,26.8,24.8,27,24.5,27z M16,26
	h8V14h-8V26z"/>
<rect x="15" y="17" width="9" height="1"/>
<rect x="15" y="14" width="9" height="1"/>
<rect x="15" y="20" width="9" height="1"/>
<rect x="15" y="23" width="9" height="1"/>
<path fill="none" stroke="#B3B3B3" stroke-linecap="square" stroke-linejoin="round" stroke-miterlimit="10" d="M25.3,24"/>
<path fill="none" stroke="#B3B3B3" stroke-linecap="square" stroke-linejoin="round" stroke-miterlimit="10" d="M15.3,24"/>
<rect x="18" y="14" width="1" height="13"/>
<rect x="21" y="14" width="1" height="13"/>
<path fill="none" stroke="#B3B3B3" stroke-linecap="square" stroke-linejoin="round" stroke-miterlimit="10" d="M22.9,28"/>
<path fill="none" stroke="#B3B3B3" stroke-linecap="square" stroke-linejoin="round" stroke-miterlimit="10" d="M22.9,13.7"/>
</svg>
