<?xml version="1.0" encoding="utf-8"?>
<!-- Generator: Adobe Illustrator 18.1.1, SVG Export Plug-In . SVG Version: 6.00 Build 0)  -->
<svg version="1.1" id="Layer_1" xmlns="http://www.w3.org/2000/svg" xmlns:xlink="http://www.w3.org/1999/xlink" x="0px" y="0px"
	 viewBox="0 0 16 16" enable-background="new 0 0 16 16" xml:space="preserve">
<g>
	<path d="M6,4.6L3.8,2.3L2.3,3.8L4.6,6C4.9,5.4,5.4,4.9,6,4.6z"/>
	<path d="M11.4,6l2.2-2.2l-1.4-1.4L10,4.6C10.6,4.9,11.1,5.4,11.4,6z"/>
	<path d="M8,4c0.3,0,0.7,0.1,1,0.1V1H7v3.1C7.3,4.1,7.7,4,8,4z"/>
	<path d="M4,8c0-0.3,0.1-0.7,0.1-1H1v2h3.1C4.1,8.7,4,8.3,4,8z"/>
	<path d="M4.6,10l-2.2,2.2l1.4,1.4L6,11.4C5.4,11.1,4.9,10.6,4.6,10z"/>
	<path d="M11.9,7C11.9,7.3,12,7.7,12,8s-0.1,0.7-0.1,1H15V7H11.9z"/>
	<path d="M10,11.4l2.2,2.2l1.4-1.4L11.4,10C11.1,10.6,10.6,11.1,10,11.4z"/>
	<path d="M8,12c-0.3,0-0.7-0.1-1-0.1V15h2v-3.1C8.7,11.9,8.3,12,8,12z"/>
</g>
</svg>
