<?xml version="1.0" encoding="utf-8"?>
<!-- Generator: Adobe Illustrator 18.1.1, SVG Export Plug-In . SVG Version: 6.00 Build 0)  -->
<svg version="1.1" id="Layer_1" xmlns="http://www.w3.org/2000/svg" xmlns:xlink="http://www.w3.org/1999/xlink" x="0px" y="0px"
	 viewBox="0 0 134 33.8" enable-background="new 0 0 134 33.8" xml:space="preserve">
<g>
	<g>
		<path d="M31.8,30.9c-2.6-6.3-5.1-12.3-7.7-18.6c-2.6,6.3-5.2,12.3-7.8,18.5c-0.2-0.4-0.4-0.7-0.5-1C13,22.8,10.1,15.7,7.2,8.6
			C6.6,7.1,6.1,5.5,4.6,4.5c2.8,0,5.4,0,8.1,0c-1.4,1-1.2,2.6-0.6,3.9c1.8,4.7,3.7,9.4,5.6,14.3c2.7-6.2,5.2-12.1,7.9-18.4
			c2.5,6.2,5,12.2,7.5,18.4c0.2-0.4,0.3-0.5,0.3-0.7c1.7-4.2,3.4-8.5,5.1-12.7c0.1-0.3,0.2-0.7,0.3-1c0.4-1.3,0.4-2.7-0.9-3.7
			c1.9,0,3.6,0,5.5,0c-1.9,2-2.5,3.9-3.4,6c-2.6,6.4-5.2,12.9-7.7,19.3C32.2,30.1,32.1,30.4,31.8,30.9z"/>
		<path d="M104.7,25.7c-0.2,1.4-0.4,2.7-0.7,3.9c0,0.2-0.5,0.6-0.7,0.6c-1.3,0-2.6,0.2-3.9,0.2c-4.8,0-9.5,0-14.3,0
			c-0.3,0-0.6,0-0.9,0c1.4-2,1.4-3,1.4-4.6c0-4.3,0-8.6,0-12.9c0-1.4-0.2-2.5-1.6-3.5c6.5,0,12.7,0,19,0c0.1,1,0.3,2.3,0.5,3.7
			c-0.2-0.2-0.4-0.3-0.5-0.4c-0.8-1-1.7-1.8-3-1.8c-3.3-0.1-7-0.1-10-0.1c0,2.3,0,4.6,0,7.6c0,0,0.5,0,0.8,0c1.8,0,3.7-0.2,5.5-0.3
			c1.3-0.1,2.7-0.5,3.7-1.8c0,1.7,0,3.2,0,4.9c-1-1.7-3-1.5-4.7-1.6c-1.8,0-3.3,0-5.3,0c0,2.9,0,5.6,0,8.5c0,0,1,0,1.6,0
			c2.6,0,5.1,0,7.7,0c2,0,3.8-0.6,5.1-2.3C104.5,25.8,104.5,25.8,104.7,25.7z"/>
		<path d="M119.9,19.5c1.7-2.5,3.4-4.6,4.9-7c0.8-1.2,0.7-2-0.3-3c1.9,0,3.7,0,5.4,0c-3.6,3-5.9,7.7-8.9,11.7
			c-0.1,0.2-0.3,0.3-0.3,0.5c0,1.9,0,3.5,0.1,5.4c0,1.1,0.5,2.4,1.7,2.4c-2.6,0-5,0-7.6,0c2-1,1.6-3.1,1.7-4.9
			c0.2-2.3-0.4-4-1.9-5.8c-1.6-1.9-2.9-3.8-4.3-5.8c-1-1.3-1.7-3.5-3.2-3.5c2.6,0,5.1,0,7.6,0c-0.2,0-0.6,0.8-0.5,1.3
			c0,0.5,0.3,1,0.6,1.5C116.5,14.7,118.1,17,119.9,19.5z"/>
		<path d="M68.1,9.5c-1.4,1-1.3,2.2-1.3,3.8c0,4.7,0.2,9.2,0.2,13.9c0,0.3,0,0.6,0,0.9c0,0,0.2,0.1,0.3,0.1c2.7,0,5.3,0,8,0
			c2.2,0,4.1-0.7,5.4-2.7c0.1,0,0.1-0.2,0.2-0.1c-0.3,1.4-0.7,3.1-1,4.1c-6.3,0-12.6,0-19.1,0c1.8-1,1.6-2.7,1.6-4.3
			c0-4.2,0-8,0-12.1c0-1.5,0-2.6-1.6-3.6C63.5,9.5,65.8,9.5,68.1,9.5z"/>
		<path d="M53.7,9.5c-1.4,0-1.6,2-1.6,3.3c0,4.5,0,8.6,0,13.1c0,1.5,0,2.6,1.4,3.6c-2.3,0-4.7,0-7.2,0c1.9-1,1.7-2.8,1.7-4.5
			c0-4.2,0-8,0-12.1c0-1.4-0.2-2.3-1.6-3.3C48.8,9.5,51.1,9.5,53.7,9.5z"/>
	</g>
</g>
</svg>
